<svg xmlns="http://www.w3.org/2000/svg" viewBox="0 0 34.52 25.97"><title>Fichier 5</title><g id="Calque_2" data-name="Calque 2"><g id="Calque_1-2" data-name="Calque 1"><path d="M34.52,8.11V9.26a2.38,2.38,0,0,1-.78,1.27c-.27.18-.57.34-.87.52.26.6.54,1.22.79,1.86a2,2,0,0,1,.15.72q0,2.83,0,5.67c0,.21-.07.43-.06.65,0,1.3.08,2.6,0,3.9a2.11,2.11,0,0,1-2.1,2.09c-1.16,0-2.32,0-3.48,0a2.12,2.12,0,0,1-1.78-1,2.47,2.47,0,0,1-.37-1.5c0-.5,0-1,0-1.52a54.58,54.58,0,0,1-8.81.75,58.17,58.17,0,0,1-8.81-.8v.31c0,.48,0,1,0,1.44A2.22,2.22,0,0,1,6.13,26c-1,0-2,0-3,0A2.25,2.25,0,0,1,.71,23.55c0-1.41,0-2.82,0-4.23,0-1.91,0-3.82,0-5.73a1.89,1.89,0,0,1,.13-.66c.26-.65.55-1.28.81-1.89a6.81,6.81,0,0,1-.92-.56A2.4,2.4,0,0,1,0,8.25,2.11,2.11,0,0,1,2.56,6.36l1.21.25c.21,0,.31,0,.41-.22.72-1.65,1.46-3.3,2.2-4.95A.85.85,0,0,1,7.07.86L12.24.17C12.82.1,13.41.06,14,0h6.32a3.43,3.43,0,0,0,.34.06c.54,0,1.09.07,1.63.13L27.2.81a1.11,1.11,0,0,1,1,.72c.7,1.63,1.43,3.24,2.15,4.85l.13.27c.5-.1,1-.16,1.47-.29a2.09,2.09,0,0,1,2.44,1.37C34.44,7.86,34.47,8,34.52,8.11Zm-16,12.94c.74-.05,2-.11,3.34-.23a61.14,61.14,0,0,0,10-1.83c.21,0,.3-.13.3-.36,0-1.61,0-3.22,0-4.83a1.52,1.52,0,0,0-.1-.47c-.36-.85-.74-1.7-1.1-2.56a.81.81,0,0,1,.6-1.19l.86-.19a.52.52,0,0,0,.45-.55c0-.52-.07-.79-.36-.88a.41.41,0,0,0-.22,0c-1.37.25-2.73.55-4.1.74-2.24.32-4.48.61-6.73.82a41,41,0,0,1-7.35.08c-1.83-.15-3.66-.3-5.48-.55C6.49,8.74,4.34,8.32,2.19,8a.53.53,0,0,0-.4.13,1,1,0,0,0,0,1.14.62.62,0,0,0,.28.14c.25.07.5.12.75.17.74.16,1,.63.67,1.33l-1,2.45a1.24,1.24,0,0,0-.1.47c0,1.6,0,3.2,0,4.8a.32.32,0,0,0,.3.38c1.51.32,3,.68,4.52,1A55.81,55.81,0,0,0,18.51,21.05ZM28.81,6.92c-.66-1.46-1.31-2.93-2-4.4a.3.3,0,0,0-.21-.15c-2.06-.24-4.11-.5-6.17-.69a40.93,40.93,0,0,0-8,.11c-1.52.17-3,.38-4.55.58a.43.43,0,0,0-.27.21c-.17.35-.32.71-.48,1.07-.49,1.09-1,2.19-1.46,3.27A59.41,59.41,0,0,0,28.81,6.92ZM6.81,21.6l-4.45-1c0,1.09,0,2.18,0,3.27a.51.51,0,0,0,.54.46q1.66,0,3.33,0a.55.55,0,0,0,.57-.55C6.82,23.06,6.81,22.33,6.81,21.6Zm25.36-1h-.09l-4.23,1a.23.23,0,0,0-.13.17c0,.68,0,1.36,0,2a.52.52,0,0,0,.55.52q1.66,0,3.33,0a.55.55,0,0,0,.57-.54C32.18,22.74,32.17,21.7,32.17,20.64Z"/><path d="M17.27,15.17H11.81c-.52,0-.83-.19-1-.58a.81.81,0,0,1,.59-1,2.69,2.69,0,0,1,.4,0H22.63a2,2,0,0,1,.43,0,.77.77,0,0,1,.65.82.82.82,0,0,1-.72.77H17.27Z"/><path d="M17.26,18.45H11.75a.82.82,0,0,1-.93-.8.81.81,0,0,1,.72-.82H22.66a2.69,2.69,0,0,1,.4,0,.8.8,0,0,1,.65.8.82.82,0,0,1-.67.78,2.42,2.42,0,0,1-.38,0Z"/><path d="M9.15,15.29A2.71,2.71,0,0,1,6.49,18a2.7,2.7,0,1,1,0-5.4A2.69,2.69,0,0,1,9.15,15.29Zm-3.74,0a1.05,1.05,0,0,0,1.09,1,1.06,1.06,0,1,0-.08-2.12A1.07,1.07,0,0,0,5.41,15.3Z"/><path d="M25.37,15.28A2.7,2.7,0,1,1,28.11,18,2.71,2.71,0,0,1,25.37,15.28Zm3.75,0A1.06,1.06,0,0,0,28,14.22a1.06,1.06,0,1,0,.05,2.12A1.05,1.05,0,0,0,29.12,15.28Z"/></g></g></svg>