<svg xmlns="http://www.w3.org/2000/svg" viewBox="0 0 15.85 35.22"><title>Fichier 6</title><g id="Calque_2" data-name="Calque 2"><g id="Calque_1-2" data-name="Calque 1"><path d="M7.28,0h.47a1.3,1.3,0,0,1,.9,1.43c0,1.19,0,2.38,0,3.58v.32l.35,0a8.61,8.61,0,0,1,3.55,1.2A7,7,0,0,1,14.81,8.7a1.12,1.12,0,0,1,0,1.39A1.1,1.1,0,0,1,13,10a5.31,5.31,0,0,0-2.1-1.78A6.32,6.32,0,0,0,8.65,7.6v8.9l.3.05a8.44,8.44,0,0,1,3.7,1.28,6.53,6.53,0,0,1,3,4c.1.41.14.84.21,1.26v.41c0,.09,0,.17,0,.25a5.69,5.69,0,0,1-.62,2.13,7.43,7.43,0,0,1-4.61,3.65c-.62.19-1.27.29-1.93.43v.3c0,1.19,0,2.37,0,3.55a1.3,1.3,0,0,1-.9,1.43H7.28a1.3,1.3,0,0,1-.89-1.43c0-1.23,0-2.47,0-3.7V29.8l-.9-.21a7.74,7.74,0,0,1-4.46-3,1.11,1.11,0,0,1,.26-1.64,1.09,1.09,0,0,1,1.57.34,5.64,5.64,0,0,0,3.26,2.2,1.9,1.9,0,0,0,.25,0V18.62a9,9,0,0,1-3.21-1.23,6.6,6.6,0,0,1-3-4.09c-.06-.22-.1-.45-.15-.68V11.33a1.8,1.8,0,0,0,.06-.22,6,6,0,0,1,1-2.5A8,8,0,0,1,6.15,5.48c.22-.05.25-.13.25-.33,0-1.24,0-2.48,0-3.72A1.3,1.3,0,0,1,7.28,0ZM8.65,27.64A5.79,5.79,0,0,0,13,25.14a3.43,3.43,0,0,0,.42-2.95c-.61-2.07-2.91-3.27-4.77-3.38ZM6.38,16.32V7.76h-.1A5.49,5.49,0,0,0,3.15,9.62a3.5,3.5,0,0,0-.5,4A5.32,5.32,0,0,0,6.38,16.32Z"/></g></g></svg>