<svg xmlns="http://www.w3.org/2000/svg" viewBox="0 0 35 35"><defs><style>.cls-1{fill:#fff;}</style></defs><title>Fichier 2</title><g id="Calque_2" data-name="Calque 2"><g id="Calque_1-2" data-name="Calque 1"><g id="Calque_2-2" data-name="Calque 2"><g id="Calque_1-2-2" data-name="Calque 1-2"><path d="M17.51,0A17.5,17.5,0,1,1,0,17.46,17.53,17.53,0,0,1,17.51,0ZM16.7,1.62a16,16,0,0,0-6.21,1.59c.33.54.64,1,.93,1.56a.75.75,0,0,1-.13,1,.74.74,0,0,1-.95.13A1.27,1.27,0,0,1,10,5.47C9.68,5,9.4,4.49,9.1,4A15.62,15.62,0,0,0,4.58,8.22l2,2a.8.8,0,0,1,.16.95.73.73,0,0,1-.84.4,1.22,1.22,0,0,1-.5-.3c-.57-.54-1.12-1.11-1.68-1.66-1,1.32-2.28,5.66-2,7.09H4.32a.8.8,0,1,1,0,1.59H1.63a15.87,15.87,0,0,0,31.71,0H33c-.79,0-1.58,0-2.37,0a.79.79,0,0,1-.85-.88.81.81,0,0,1,.88-.71h2.71a16,16,0,0,0-2.07-7.1l-1.73,1.71a1.16,1.16,0,0,1-.31.22.77.77,0,0,1-1-.29.79.79,0,0,1,.13-1l2-2A15.93,15.93,0,0,0,25.91,4l-.19.29c-.26.43-.5.86-.77,1.27a.78.78,0,0,1-1.08.29.81.81,0,0,1-.29-1.11c.08-.14.16-.27.25-.4l.67-1.13a16.11,16.11,0,0,0-6.21-1.59V2c0,.79,0,1.58,0,2.37a.78.78,0,0,1-.77.84.8.8,0,0,1-.82-.81c0-.48,0-1,0-1.45Z"/><path d="M17.56,15.09a6,6,0,0,1,.74.17.35.35,0,0,0,.43-.1C20.87,13,23,10.86,25.16,8.71a1,1,0,0,1,.75-.36.76.76,0,0,1,.66.44.75.75,0,0,1-.07.81,2,2,0,0,1-.24.26l-6.38,6.37a.41.41,0,0,0-.13.51,2.36,2.36,0,0,1-1.58,3.05,2.42,2.42,0,0,1-3-1.61,2.4,2.4,0,0,1,1.63-3l.06,0C17.1,15.14,17.31,15.13,17.56,15.09Zm.73,2.41a.77.77,0,0,0-.75-.8h0a.8.8,0,0,0-.81.78.79.79,0,0,0,1.58.05Z"/><path class="cls-1" d="M18.29,17.5a.77.77,0,0,1-.76.79h0a.79.79,0,0,1-.81-.81.82.82,0,0,1,.82-.78.77.77,0,0,1,.77.78Z"/></g></g></g></g></svg>