<svg xmlns="http://www.w3.org/2000/svg" viewBox="0 0 29.17 35"><title>Fichier 1</title><g id="Calque_2" data-name="Calque 2"><g id="Calque_1-2" data-name="Calque 1"><path d="M29.17,28.7v.7a.47.47,0,0,0-.05.1,6.3,6.3,0,0,1-4.92,5.19c-.57.15-1.16.21-1.74.31H6.71c-.64-.12-1.29-.19-1.91-.36A6.24,6.24,0,0,1,.26,30.4c-.1-.31-.17-.63-.26-.94V28.7a.69.69,0,0,0,.05-.13A3.07,3.07,0,0,1,2.25,26c.34-.12.7-.2,1-.29-.17-.59-.36-1.18-.51-1.78a8.15,8.15,0,0,1-.23-3.83q.89-3.84,1.8-7.68a12.13,12.13,0,0,1,.53-1.9,4.25,4.25,0,0,1,2.3-2.17c.87-.39,1.79-.68,2.71-1V5.83H8.38A1.87,1.87,0,0,1,6.56,3.21c.19-.54.43-1.06.59-1.61A2.14,2.14,0,0,1,8.75,0H20.42a2,2,0,0,1,1.45,1.26c.26.69.55,1.37.76,2.07a2.27,2.27,0,0,1,.08,1,1.8,1.8,0,0,1-1.82,1.5H19.25a11.31,11.31,0,0,1,0,1.17c0,.31.09.41.38.47a8.82,8.82,0,0,1,3.05,1.19,4.06,4.06,0,0,1,1.86,2.5c.56,2.35,1.12,4.7,1.66,7.06a21.16,21.16,0,0,1,.51,2.59,10.7,10.7,0,0,1-.77,4.61l-.09.27a6.82,6.82,0,0,1,.74.16A3.22,3.22,0,0,1,29,28.05C29.07,28.27,29.12,28.48,29.17,28.7ZM14.54,8.16a20,20,0,0,0-4.36.36A8.63,8.63,0,0,0,7.07,9.69a2.94,2.94,0,0,0-1.33,1.84c-.53,2.28-1.07,4.55-1.6,6.83a19.4,19.4,0,0,0-.51,2.45,9.46,9.46,0,0,0,1,4.9A4.14,4.14,0,0,0,5.91,27.4,2.16,2.16,0,0,0,8,27.83a20.85,20.85,0,0,1,4.69-.93,20.31,20.31,0,0,1,4.05.05,23.76,23.76,0,0,1,4.71,1,1,1,0,0,0,.42,0,2.67,2.67,0,0,0,1.81-1,7.18,7.18,0,0,0,1.44-3,7.9,7.9,0,0,0,.29-3.83c-.68-2.89-1.37-5.78-2-8.67a2.74,2.74,0,0,0-1-1.57A7.68,7.68,0,0,0,19,8.52,19.25,19.25,0,0,0,14.54,8.16ZM21,33.82V29A21.06,21.06,0,0,0,8.18,29v4.8ZM14.6,4.67h6.21a.71.71,0,0,0,.71-1c-.24-.65-.48-1.3-.73-2A.7.7,0,0,0,20,1.17H9.19a.76.76,0,0,0-.85.59L7.68,3.54c-.26.71,0,1.13.8,1.13Zm7.58,29.22a21,21,0,0,0,2.21-.48,4.92,4.92,0,0,0,3.58-4,2,2,0,0,0-1.11-2.16,7.38,7.38,0,0,0-1.4-.36.38.38,0,0,0-.29.15,4.35,4.35,0,0,1-3,2.13ZM7,29.13a4.14,4.14,0,0,1-2.73-1.77c-.45-.6-.45-.61-1.21-.42L2.79,27a2,2,0,0,0-1.6,2.31,4.25,4.25,0,0,0,.66,1.85c1.17,1.91,3,2.5,5.13,2.66ZM18.07,5.85h-7V7.17a33.14,33.14,0,0,1,7,0Z"/><path d="M23.25,21.38a4,4,0,0,1-.73,2.44A3,3,0,0,1,19.46,25a23.63,23.63,0,0,0-6.55-.43A26.68,26.68,0,0,0,9.82,25,3.19,3.19,0,0,1,6,22.31a6.47,6.47,0,0,1,.21-2.59c.48-2,1-4,1.42-6.06a3.39,3.39,0,0,1,3-2.87,24.89,24.89,0,0,1,7.26-.1,5.15,5.15,0,0,1,2,.55,3,3,0,0,1,1.51,1.94c.61,2.51,1.19,5,1.77,7.53A4.64,4.64,0,0,1,23.25,21.38ZM9.33,23.85V22.41c0-.54.21-.83.6-.82s.57.29.57.82v1.27l1.17-.18v-.41c0-.5,0-1,0-1.51a.58.58,0,0,1,1.16,0c0,.12,0,.24,0,.35v1.47L14,23.33V21.2c0-.5.21-.78.58-.78s.59.28.59.8v1.87c0,.08,0,.16,0,.25l1.15.05v-.31c0-.49,0-1,0-1.46A.59.59,0,0,1,16.9,21a.61.61,0,0,1,.6.62c0,.28,0,.57,0,.85v1l1.17.16c0-.5,0-1,0-1.45a.58.58,0,0,1,.58-.63.59.59,0,0,1,.58.63c0,.12,0,.23,0,.35v1.32a1.93,1.93,0,0,0,1.82-.84A2.76,2.76,0,0,0,22,20.92c-.55-2.48-1.14-5-1.73-7.42a1.84,1.84,0,0,0-1.38-1.41,11.59,11.59,0,0,0-1.2-.25,22.43,22.43,0,0,0-4.56-.15,19.55,19.55,0,0,0-2.85.4,1.77,1.77,0,0,0-1.42,1.42Q8,17.2,7.15,20.91A2.8,2.8,0,0,0,7.49,23,1.82,1.82,0,0,0,9.33,23.85Z"/></g></g></svg>