<svg xmlns="http://www.w3.org/2000/svg" viewBox="0 0 35 35"><title>Fichier 3</title><g id="Calque_2" data-name="Calque 2"><g id="Calque_1-2" data-name="Calque 1"><path d="M0,18.49V16.33a1.84,1.84,0,0,0,.05-.25c.09-.66.14-1.33.28-2A17.25,17.25,0,0,1,7.67,3,16.71,16.71,0,0,1,15.15.17c.49-.07,1-.11,1.47-.17h1.75a1.77,1.77,0,0,0,.32.05A14.86,14.86,0,0,1,22,.6,17.31,17.31,0,0,1,31.44,7a17.11,17.11,0,0,1,3.39,8.31c.07.51.11,1,.17,1.53v1.69a1.47,1.47,0,0,0,0,.29,16.82,16.82,0,0,1-.8,4.1,17.38,17.38,0,0,1-7.48,9.51,16.8,16.8,0,0,1-6.82,2.44c-.49.07-1,.11-1.48.17h-1.8a1.47,1.47,0,0,0-.29,0,16,16,0,0,1-4.05-.76,17.25,17.25,0,0,1-9.17-6.81,17,17,0,0,1-2.9-7.53C.11,19.39.05,18.94,0,18.49ZM17.78,33.71A16.21,16.21,0,1,0,1.29,18.14,16.23,16.23,0,0,0,17.78,33.71Z"/><path d="M18.14,16.85h5.75a1.8,1.8,0,0,0,0-.22c0-1.11,0-2.22,0-3.33a.27.27,0,0,0-.21-.31A2.66,2.66,0,0,1,21.94,9.9a2.67,2.67,0,0,1,5.29.5A2.66,2.66,0,0,1,25.46,13a.34.34,0,0,0-.27.39c0,1.33,0,2.66,0,4,0,.57-.23.8-.8.8H18.14v1.39c0,.72,0,1.44,0,2.16,0,.18,0,.27.22.33a2.68,2.68,0,1,1-3.54,2.36A2.73,2.73,0,0,1,16.62,22c.09,0,.23-.13.23-.19,0-1.22,0-2.43,0-3.66H10.7v3.53a.28.28,0,0,0,.23.33,2.68,2.68,0,1,1-1.79,0,.34.34,0,0,0,.28-.38q0-4.15,0-8.31A.34.34,0,0,0,9.15,13a2.67,2.67,0,1,1,1.78,0c-.13,0-.24.08-.23.26v3.47a.69.69,0,0,0,0,.13h6.12a1.79,1.79,0,0,0,0-.24c0-1.1,0-2.2,0-3.29,0-.19,0-.27-.23-.33a2.69,2.69,0,1,1,1.76,0,.31.31,0,0,0-.25.36c0,1.08,0,2.16,0,3.24Zm6.42-5A1.4,1.4,0,0,0,26,10.44a1.42,1.42,0,0,0-1.4-1.39,1.4,1.4,0,0,0-1.4,1.4A1.39,1.39,0,0,0,24.56,11.85Zm-14.49,0a1.39,1.39,0,0,0,1.39-1.39,1.4,1.4,0,1,0-2.8,0A1.4,1.4,0,0,0,10.07,11.85Zm7.47,11.29a1.4,1.4,0,1,0,1.36,1.45A1.4,1.4,0,0,0,17.54,23.14Zm-7.48,0a1.4,1.4,0,1,0,1.4,1.4A1.39,1.39,0,0,0,10.06,23.14Z"/></g></g></svg>